<?xml version="1.0" encoding="utf-8"?>
<!-- Generator: Adobe Illustrator 16.0.0, SVG Export Plug-In . SVG Version: 6.00 Build 0)  -->
<!DOCTYPE svg PUBLIC "-//W3C//DTD SVG 1.1//EN" "http://www.w3.org/Graphics/SVG/1.1/DTD/svg11.dtd">
<svg version="1.1" id="Layer_1" xmlns="http://www.w3.org/2000/svg" xmlns:xlink="http://www.w3.org/1999/xlink" x="0px" y="0px"
	 width="35.193px" height="31.223px" viewBox="0 0 35.193 31.223" enable-background="new 0 0 35.193 31.223" xml:space="preserve">
<circle opacity="0.5" fill="#FFFFFF" cx="18" cy="16.334" r="5"/>
<g opacity="0.5">
	<circle fill="none" cx="18" cy="16.334" r="7.166"/>
	<path fill="#FFFFFF" d="M30,7h-4c0-1.657-1.344-3-3-3H13c-1.657,0-3,1.343-3,3H6C4.896,7,4,7.896,4,9v15c0,1.104,0.896,2,2,2h24
		c1.104,0,2-0.896,2-2V9C32,7.896,31.104,7,30,7z M18,23.5c-3.958,0-7.167-3.208-7.167-7.166S14.042,9.168,18,9.168
		s7.166,3.208,7.166,7.166S21.958,23.5,18,23.5z"/>
</g>
</svg>
