<?xml version="1.0" encoding="utf-8"?>
<!-- Generator: Adobe Illustrator 16.0.0, SVG Export Plug-In . SVG Version: 6.00 Build 0)  -->
<!DOCTYPE svg PUBLIC "-//W3C//DTD SVG 1.1//EN" "http://www.w3.org/Graphics/SVG/1.1/DTD/svg11.dtd">
<svg version="1.1" id="Layer_1" xmlns="http://www.w3.org/2000/svg" xmlns:xlink="http://www.w3.org/1999/xlink" x="0px" y="0px"
	 width="32px" height="32px" viewBox="0 0 32 32" enable-background="new 0 0 32 32" xml:space="preserve">
<g>
	<path opacity="0.5" fill="#FFFFFF" enable-background="new    " d="M7.438,4.323H5.143c-1.032,0-1.869,0.837-1.869,1.869
		c0,1.032,0.837,1.869,1.869,1.869h2.294V4.323z"/>
	<path opacity="0.5" fill="#FFFFFF" enable-background="new    " d="M26.923,4.323H10.188v3.738h16.735
		c1.032,0,1.869-0.837,1.869-1.869C28.792,5.16,27.955,4.323,26.923,4.323z"/>
</g>
<g>
	<path opacity="0.5" fill="#FFFFFF" enable-background="new    " d="M7.438,13.631H5.143c-1.032,0-1.869,0.837-1.869,1.869
		s0.837,1.869,1.869,1.869h2.294V13.631z"/>
	<path opacity="0.5" fill="#FFFFFF" enable-background="new    " d="M26.923,13.631H10.188v3.738h16.735
		c1.032,0,1.869-0.837,1.869-1.869S27.955,13.631,26.923,13.631z"/>
</g>
<g>
	<path opacity="0.5" fill="#FFFFFF" enable-background="new    " d="M7.438,22.939H5.143c-1.032,0-1.869,0.836-1.869,1.869
		c0,1.031,0.837,1.868,1.869,1.868h2.294V22.939z"/>
	<path opacity="0.5" fill="#FFFFFF" enable-background="new    " d="M26.923,22.939H10.188v3.737h16.735
		c1.032,0,1.869-0.837,1.869-1.868C28.792,23.775,27.955,22.938,26.923,22.939z"/>
</g>
</svg>
