<?xml version="1.0" encoding="utf-8"?>
<!-- Generator: Adobe Illustrator 16.2.0, SVG Export Plug-In . SVG Version: 6.00 Build 0)  -->
<!DOCTYPE svg PUBLIC "-//W3C//DTD SVG 1.1//EN" "http://www.w3.org/Graphics/SVG/1.1/DTD/svg11.dtd">
<svg version="1.1" id="Layer_1" xmlns="http://www.w3.org/2000/svg" xmlns:xlink="http://www.w3.org/1999/xlink" x="0px" y="0px"
	 width="48.875px" height="32px" viewBox="-8.5 0 48.875 32" enable-background="new -8.5 0 48.875 32" xml:space="preserve">
<g>
	<path fill="#FFFFFF" d="M26.473,26.414c-0.586,0-1.162-0.262-1.543-0.762c-0.65-0.852-0.488-2.07,0.363-2.721l8.258-6.301
		l-8.258-6.304c-0.852-0.65-1.014-1.867-0.363-2.719c0.648-0.853,1.865-1.017,2.717-0.366l10.281,7.845
		c0.48,0.367,0.762,0.938,0.762,1.544c0,0.604-0.281,1.174-0.762,1.541l-10.281,7.844C27.295,26.285,26.883,26.414,26.473,26.414z"
		/>
</g>
<g>
	<path fill="#FFFFFF" d="M5.704,26.414c-0.41,0-0.824-0.129-1.176-0.398l-10.279-7.844c-0.481-0.367-0.764-0.938-0.764-1.541
		c0-0.607,0.282-1.177,0.764-1.544L4.528,7.242c0.852-0.649,2.069-0.486,2.72,0.366c0.65,0.852,0.485,2.069-0.365,2.72l-8.259,6.303
		l8.259,6.301c0.851,0.65,1.016,1.869,0.365,2.721C6.865,26.152,6.288,26.414,5.704,26.414z"/>
</g>
<g>
	<path fill="#FFFFFF" d="M11.654,27.793c-0.265,0-0.533-0.053-0.79-0.168c-0.979-0.436-1.418-1.586-0.981-2.562L18.42,5.918
		c0.438-0.979,1.584-1.419,2.562-0.982s1.418,1.583,0.982,2.562l-8.538,19.144C13.105,27.365,12.396,27.793,11.654,27.793z"/>
</g>
</svg>
