<?xml version="1.0" encoding="iso-8859-1"?>
<!-- Generator: Adobe Illustrator 16.0.0, SVG Export Plug-In . SVG Version: 6.00 Build 0)  -->
<!DOCTYPE svg PUBLIC "-//W3C//DTD SVG 1.1//EN" "http://www.w3.org/Graphics/SVG/1.1/DTD/svg11.dtd">
<svg version="1.1" id="Layer_1" xmlns="http://www.w3.org/2000/svg" xmlns:xlink="http://www.w3.org/1999/xlink" x="0px" y="0px"
	 width="32px" height="32px" viewBox="0 0 32 32" enable-background="new 0 0 32 32" xml:space="preserve">
<path opacity="0.5" fill="#FFFFFF" d="M28.792,6.192c0,1.032-0.837,1.869-1.869,1.869H5.143c-1.032,0-1.869-0.837-1.869-1.869l0,0
	c0-1.032,0.837-1.869,1.869-1.869h21.78C27.955,4.323,28.792,5.16,28.792,6.192L28.792,6.192z"/>
<path opacity="0.5" fill="#FFFFFF" d="M28.792,24.808c0,1.032-0.837,1.869-1.869,1.869H5.143c-1.032,0-1.869-0.837-1.869-1.869l0,0
	c0-1.032,0.837-1.869,1.869-1.869h21.78C27.955,22.938,28.792,23.775,28.792,24.808L28.792,24.808z"/>
<path opacity="0.5" fill="#FFFFFF" d="M28.792,15.5c0,1.032-0.837,1.869-1.869,1.869H5.143c-1.032,0-1.869-0.837-1.869-1.869l0,0
	c0-1.032,0.837-1.869,1.869-1.869h21.78C27.955,13.631,28.792,14.468,28.792,15.5L28.792,15.5z"/>
</svg>
