<?xml version="1.0" encoding="utf-8"?>
<!-- Generator: Adobe Illustrator 16.0.0, SVG Export Plug-In . SVG Version: 6.00 Build 0)  -->
<!DOCTYPE svg PUBLIC "-//W3C//DTD SVG 1.1//EN" "http://www.w3.org/Graphics/SVG/1.1/DTD/svg11.dtd">
<svg version="1.1" id="Layer_1" xmlns="http://www.w3.org/2000/svg" xmlns:xlink="http://www.w3.org/1999/xlink" x="0px" y="0px"
	 width="156px" height="204px" viewBox="0 0 156 204" enable-background="new 0 0 156 204" xml:space="preserve">
<g opacity="0.5">
	<path fill="none" d="M23,186c0,1.657,1.343,3,3,3h103c1.657,0,3-1.343,3-3V45H23V186z"/>
	<path fill="none" d="M108,16c0-1.657-1.343-3-3-3H51c-1.657,0-3,1.343-3,3v7h60V16z"/>
	<path fill="#FFFFFF" d="M146,23h-26v-8c0-8.284-6.716-15-15-15H51c-8.284,0-15,6.716-15,15v8H10C4.477,23,0,27.477,0,33v12h8v139
		c0,11.046,8.954,20,20,20h100c11.046,0,20-8.954,20-20V45h8V33C156,27.477,151.522,23,146,23z M48,16c0-1.657,1.343-3,3-3h54
		c1.657,0,3,1.343,3,3v7H48V16z M132,186c0,1.657-1.343,3-3,3H26c-1.657,0-3-1.343-3-3V45h109V186z"/>
</g>
<rect x="36" y="51" opacity="0.5" fill="#FFFFFF" width="15" height="132"/>
<rect x="70" y="51" opacity="0.5" fill="#FFFFFF" width="15" height="132"/>
<rect x="105" y="51" opacity="0.5" fill="#FFFFFF" width="15" height="132"/>
</svg>
