<?xml version="1.0" encoding="iso-8859-1"?>
<!-- Generator: Adobe Illustrator 16.0.0, SVG Export Plug-In . SVG Version: 6.00 Build 0)  -->
<!DOCTYPE svg PUBLIC "-//W3C//DTD SVG 1.1//EN" "http://www.w3.org/Graphics/SVG/1.1/DTD/svg11.dtd">
<svg version="1.1" id="Layer_1" xmlns="http://www.w3.org/2000/svg" xmlns:xlink="http://www.w3.org/1999/xlink" x="0px" y="0px"
	 width="503.225px" height="138.667px" viewBox="0 0 503.225 138.667" enable-background="new 0 0 503.225 138.667"
	 xml:space="preserve">
<rect y="43.548" opacity="0.2" fill="#FEDDCB" stroke="#FFFFFF" stroke-miterlimit="10" width="125.806" height="86.021"/>
<rect x="125.806" y="43.548" opacity="0.2" fill="#FEDDCB" stroke="#FFFFFF" stroke-miterlimit="10" width="125.806" height="86.021"/>
<rect x="251.612" y="43.548" opacity="0.5" fill="#77C043" stroke="#FFFFFF" stroke-miterlimit="10" width="125.806" height="86.021"/>
<rect x="377.418" y="43.548" opacity="0.2" fill="#FEDDCB" stroke="#FFFFFF" stroke-miterlimit="10" width="125.807" height="86.021"/>
<rect x="243.011" y="34.419" fill="none" stroke="#FFFFFF" stroke-miterlimit="10" width="143.01" height="104.248"/>
<g>
	<path fill="#FFFFFF" d="M247.161,13.807l-2.591-8.083h2.003l0.983,3.418c0.276,0.959,0.528,1.883,0.72,2.891h0.036
		c0.204-0.972,0.456-1.931,0.731-2.854l1.031-3.454h1.943l-2.722,8.083H247.161z"/>
	<path fill="#FFFFFF" d="M254.385,6.311c0,0.504-0.384,0.912-0.983,0.912c-0.576,0-0.96-0.408-0.948-0.912
		c-0.012-0.527,0.372-0.923,0.959-0.923S254.373,5.784,254.385,6.311z M252.502,13.807V7.942h1.823v5.865H252.502z"/>
	<path fill="#FFFFFF" d="M257.193,11.457c0.06,0.755,0.804,1.115,1.655,1.115c0.624,0,1.127-0.084,1.619-0.24l0.24,1.235
		c-0.6,0.24-1.332,0.36-2.123,0.36c-1.991,0-3.13-1.151-3.13-2.986c0-1.487,0.923-3.13,2.962-3.13c1.895,0,2.614,1.475,2.614,2.926
		c0,0.312-0.036,0.588-0.06,0.72H257.193z M259.34,10.209c0-0.444-0.192-1.187-1.032-1.187c-0.768,0-1.079,0.695-1.127,1.187H259.34
		z"/>
	<path fill="#FFFFFF" d="M263.313,7.942l0.468,2.398c0.12,0.612,0.24,1.259,0.336,1.931h0.024c0.12-0.672,0.288-1.343,0.432-1.919
		l0.624-2.411h1.439l0.588,2.339c0.156,0.66,0.312,1.319,0.432,1.991h0.024c0.084-0.672,0.204-1.331,0.336-2.003l0.503-2.327h1.787
		l-1.799,5.865h-1.715l-0.552-2.063c-0.144-0.576-0.252-1.103-0.372-1.823h-0.024c-0.108,0.731-0.228,1.271-0.384,1.823
		l-0.587,2.063h-1.715l-1.703-5.865H263.313z"/>
	<path fill="#FFFFFF" d="M271.162,9.909c0-0.768-0.024-1.427-0.048-1.967h1.583l0.084,0.815h0.024
		c0.432-0.624,1.104-0.947,1.956-0.947c1.283,0,2.435,1.115,2.435,2.986c0,2.135-1.355,3.142-2.663,3.142
		c-0.707,0-1.259-0.288-1.523-0.671h-0.024v2.914h-1.823V9.909z M272.985,11.289c0,0.144,0.012,0.276,0.036,0.384
		c0.12,0.492,0.54,0.863,1.067,0.863c0.791,0,1.259-0.66,1.259-1.655c0-0.936-0.42-1.643-1.235-1.643
		c-0.516,0-0.971,0.384-1.091,0.923c-0.024,0.096-0.036,0.216-0.036,0.324V11.289z"/>
	<path fill="#FFFFFF" d="M284.167,10.809c0,2.147-1.523,3.13-3.095,3.13c-1.715,0-3.034-1.127-3.034-3.022
		c0-1.895,1.248-3.106,3.131-3.106C282.967,7.811,284.167,9.046,284.167,10.809z M279.92,10.869c0,1.007,0.42,1.763,1.2,1.763
		c0.707,0,1.163-0.708,1.163-1.763c0-0.875-0.336-1.763-1.163-1.763C280.245,9.106,279.92,10.005,279.92,10.869z"/>
	<path fill="#FFFFFF" d="M285.297,9.874c0-0.864-0.023-1.427-0.048-1.931h1.571l0.06,1.08h0.048c0.3-0.852,1.02-1.211,1.584-1.211
		c0.167,0,0.251,0,0.384,0.024v1.715c-0.133-0.024-0.288-0.048-0.492-0.048c-0.672,0-1.127,0.36-1.247,0.923
		c-0.024,0.12-0.036,0.264-0.036,0.408v2.975h-1.823V9.874z"/>
	<path fill="#FFFFFF" d="M292.148,6.263v1.679h1.308v1.343h-1.308v2.123c0,0.708,0.168,1.031,0.72,1.031
		c0.228,0,0.407-0.024,0.539-0.048l0.013,1.379c-0.24,0.096-0.672,0.156-1.188,0.156c-0.588,0-1.079-0.204-1.367-0.504
		c-0.336-0.348-0.504-0.912-0.504-1.739V9.286h-0.779V7.942h0.779V6.671L292.148,6.263z"/>
	<path fill="#FFFFFF" d="M250.591,25.257c0,2.146-1.487,3.082-2.89,3.082c-1.571,0-2.783-1.151-2.783-2.986
		c0-1.943,1.271-3.082,2.878-3.082C249.464,22.271,250.591,23.481,250.591,25.257z M245.985,25.316c0,1.271,0.732,2.231,1.763,2.231
		c1.007,0,1.763-0.947,1.763-2.255c0-0.983-0.492-2.23-1.739-2.23C246.525,23.062,245.985,24.213,245.985,25.316z"/>
	<path fill="#FFFFFF" d="M252.25,22.402l1.14,3.262c0.192,0.527,0.348,1.007,0.468,1.487h0.036c0.132-0.48,0.3-0.96,0.492-1.487
		l1.127-3.262h1.104l-2.279,5.805h-1.007l-2.207-5.805H252.25z"/>
	<path fill="#FFFFFF" d="M258.082,25.497c0.024,1.427,0.935,2.015,1.991,2.015c0.755,0,1.211-0.132,1.607-0.3l0.18,0.756
		c-0.372,0.168-1.007,0.36-1.931,0.36c-1.787,0-2.854-1.175-2.854-2.927c0-1.751,1.032-3.13,2.723-3.13
		c1.895,0,2.399,1.667,2.399,2.734c0,0.216-0.024,0.384-0.036,0.492H258.082z M261.176,24.741c0.012-0.671-0.276-1.715-1.463-1.715
		c-1.067,0-1.535,0.983-1.619,1.715H261.176z"/>
	<path fill="#FFFFFF" d="M263.506,24.213c0-0.684-0.012-1.271-0.048-1.811h0.923l0.036,1.139h0.048
		c0.264-0.779,0.899-1.271,1.607-1.271c0.12,0,0.204,0.012,0.3,0.036v0.996c-0.108-0.024-0.216-0.036-0.36-0.036
		c-0.744,0-1.271,0.564-1.416,1.355c-0.024,0.144-0.048,0.312-0.048,0.492v3.094h-1.043V24.213z"/>
	<path fill="#FFFFFF" d="M267.897,28.207v-5.001h-0.815v-0.803h0.815V22.15c0-0.804,0.276-1.523,0.815-2.003
		c0.456-0.384,1.056-0.588,1.859-0.588c0.671,0,1.307,0.144,1.739,0.384v8.264h-1.043v-7.676c-0.18-0.096-0.456-0.156-0.863-0.156
		c-1.104,0-1.463,0.803-1.463,1.739v0.288h1.355v0.803h-1.355v5.001H267.897z"/>
	<path fill="#FFFFFF" d="M279.319,25.257c0,2.146-1.487,3.082-2.891,3.082c-1.571,0-2.783-1.151-2.783-2.986
		c0-1.943,1.271-3.082,2.878-3.082C278.191,22.271,279.319,23.481,279.319,25.257z M274.713,25.316c0,1.271,0.731,2.231,1.763,2.231
		c1.008,0,1.763-0.947,1.763-2.255c0-0.983-0.491-2.23-1.738-2.23C275.252,23.062,274.713,24.213,274.713,25.316z"/>
	<path fill="#FFFFFF" d="M280.989,22.402l0.768,2.95c0.168,0.648,0.324,1.248,0.432,1.847h0.036
		c0.132-0.588,0.324-1.211,0.516-1.835l0.948-2.962h0.887l0.9,2.902c0.216,0.696,0.384,1.307,0.516,1.895h0.035
		c0.097-0.588,0.252-1.199,0.444-1.883l0.827-2.914h1.044l-1.871,5.805h-0.96l-0.887-2.771c-0.204-0.647-0.372-1.223-0.516-1.907
		h-0.024c-0.144,0.695-0.324,1.295-0.527,1.919l-0.936,2.758h-0.96l-1.751-5.805H280.989z"/>
	<path fill="#FFFFFF" d="M289.438,23.362c0-0.444,0.3-0.756,0.719-0.756c0.42,0,0.696,0.312,0.708,0.756
		c0,0.419-0.275,0.744-0.72,0.744C289.725,24.105,289.438,23.781,289.438,23.362z M289.438,27.595c0-0.443,0.3-0.755,0.719-0.755
		c0.42,0,0.696,0.312,0.708,0.755c0,0.42-0.275,0.744-0.72,0.744C289.725,28.339,289.438,28.015,289.438,27.595z"/>
	<path fill="#FFFFFF" d="M294.717,19.692h1.055v3.622h0.024c0.168-0.3,0.432-0.564,0.756-0.744c0.312-0.18,0.684-0.3,1.079-0.3
		c0.779,0,2.026,0.479,2.026,2.482v3.454h-1.055v-3.334c0-0.936-0.349-1.727-1.344-1.727c-0.684,0-1.224,0.479-1.415,1.055
		c-0.06,0.144-0.072,0.3-0.072,0.504v3.502h-1.055V19.692z"/>
	<path fill="#FFFFFF" d="M302.552,20.771c0.012,0.36-0.252,0.648-0.672,0.648c-0.371,0-0.636-0.288-0.636-0.648
		c0-0.372,0.276-0.66,0.66-0.66C302.3,20.111,302.552,20.399,302.552,20.771z M301.377,28.207v-5.805h1.055v5.805H301.377z"/>
	<path fill="#FFFFFF" d="M309.198,19.692v7.016c0,0.516,0.012,1.103,0.048,1.499h-0.947L308.25,27.2h-0.024
		c-0.323,0.647-1.031,1.139-1.979,1.139c-1.403,0-2.482-1.187-2.482-2.95c-0.013-1.931,1.188-3.118,2.603-3.118
		c0.888,0,1.487,0.419,1.751,0.887h0.023v-3.466H309.198z M308.142,24.765c0-0.132-0.012-0.312-0.048-0.444
		c-0.155-0.672-0.731-1.224-1.523-1.224c-1.091,0-1.738,0.959-1.738,2.243c0,1.175,0.575,2.146,1.715,2.146
		c0.708,0,1.355-0.468,1.547-1.259c0.036-0.144,0.048-0.288,0.048-0.456V24.765z"/>
	<path fill="#FFFFFF" d="M315.966,19.692v7.016c0,0.516,0.012,1.103,0.048,1.499h-0.947l-0.048-1.007h-0.024
		c-0.323,0.647-1.031,1.139-1.979,1.139c-1.403,0-2.482-1.187-2.482-2.95c-0.013-1.931,1.188-3.118,2.603-3.118
		c0.888,0,1.487,0.419,1.751,0.887h0.023v-3.466H315.966z M314.911,24.765c0-0.132-0.012-0.312-0.048-0.444
		c-0.155-0.672-0.731-1.224-1.522-1.224c-1.092,0-1.739,0.959-1.739,2.243c0,1.175,0.575,2.146,1.715,2.146
		c0.708,0,1.355-0.468,1.547-1.259c0.036-0.144,0.048-0.288,0.048-0.456V24.765z"/>
	<path fill="#FFFFFF" d="M318.308,25.497c0.024,1.427,0.936,2.015,1.991,2.015c0.756,0,1.211-0.132,1.607-0.3l0.18,0.756
		c-0.372,0.168-1.008,0.36-1.931,0.36c-1.787,0-2.854-1.175-2.854-2.927c0-1.751,1.031-3.13,2.723-3.13
		c1.895,0,2.398,1.667,2.398,2.734c0,0.216-0.024,0.384-0.036,0.492H318.308z M321.403,24.741c0.012-0.671-0.276-1.715-1.463-1.715
		c-1.067,0-1.535,0.983-1.619,1.715H321.403z"/>
	<path fill="#FFFFFF" d="M323.733,23.973c0-0.6-0.013-1.091-0.049-1.571h0.936l0.061,0.959h0.023
		c0.288-0.552,0.96-1.091,1.919-1.091c0.804,0,2.051,0.479,2.051,2.47v3.466h-1.055v-3.346c0-0.936-0.349-1.715-1.344-1.715
		c-0.695,0-1.235,0.492-1.415,1.079c-0.048,0.132-0.072,0.312-0.072,0.492v3.49h-1.055V23.973z"/>
</g>
<g>
	<path fill="#FFFFFF" d="M43.642,79.476h4.354v0.875h-3.31v2.687h3.058v0.863h-3.058v3.658h-1.043V79.476z"/>
	<path fill="#FFFFFF" d="M49.138,83.565c0-0.684-0.012-1.271-0.048-1.811h0.923l0.036,1.139h0.048
		c0.264-0.779,0.899-1.271,1.607-1.271c0.12,0,0.204,0.012,0.3,0.036v0.996c-0.108-0.024-0.216-0.036-0.36-0.036
		c-0.744,0-1.271,0.564-1.416,1.355c-0.024,0.144-0.048,0.312-0.048,0.492v3.094h-1.043V83.565z"/>
	<path fill="#FFFFFF" d="M56.216,87.559l-0.084-0.731h-0.036c-0.324,0.456-0.947,0.863-1.775,0.863
		c-1.175,0-1.775-0.828-1.775-1.667c0-1.403,1.247-2.171,3.49-2.159v-0.12c0-0.479-0.132-1.343-1.319-1.343
		c-0.54,0-1.104,0.168-1.511,0.432l-0.24-0.695c0.48-0.312,1.175-0.516,1.907-0.516c1.775,0,2.207,1.211,2.207,2.375v2.171
		c0,0.503,0.024,0.995,0.096,1.391H56.216z M56.06,84.597c-1.151-0.024-2.458,0.18-2.458,1.307c0,0.684,0.456,1.008,0.996,1.008
		c0.755,0,1.235-0.48,1.403-0.972c0.036-0.108,0.06-0.228,0.06-0.336V84.597z"/>
	<path fill="#FFFFFF" d="M58.786,83.325c0-0.6-0.012-1.091-0.048-1.571h0.923l0.048,0.936h0.036
		c0.324-0.552,0.864-1.067,1.823-1.067c0.792,0,1.391,0.479,1.643,1.163h0.024c0.18-0.324,0.408-0.576,0.647-0.755
		c0.348-0.264,0.731-0.408,1.283-0.408c0.768,0,1.907,0.503,1.907,2.519v3.418h-1.032v-3.286c0-1.115-0.408-1.787-1.259-1.787
		c-0.6,0-1.067,0.444-1.247,0.959c-0.048,0.144-0.084,0.336-0.084,0.528v3.586h-1.032v-3.478c0-0.923-0.408-1.595-1.211-1.595
		c-0.66,0-1.14,0.528-1.308,1.056c-0.06,0.156-0.084,0.335-0.084,0.516v3.502h-1.031V83.325z"/>
	<path fill="#FFFFFF" d="M69.381,84.849c0.024,1.427,0.936,2.015,1.991,2.015c0.755,0,1.211-0.132,1.607-0.3l0.18,0.756
		c-0.372,0.168-1.007,0.36-1.931,0.36c-1.787,0-2.854-1.175-2.854-2.927c0-1.751,1.032-3.13,2.723-3.13
		c1.895,0,2.399,1.667,2.399,2.734c0,0.216-0.024,0.384-0.036,0.492H69.381z M72.476,84.093c0.012-0.671-0.276-1.715-1.463-1.715
		c-1.067,0-1.535,0.983-1.619,1.715H72.476z"/>
	<path fill="#FFFFFF" d="M79.305,80.747h-0.024l-1.355,0.731l-0.204-0.804l1.703-0.912h0.9v7.796h-1.02V80.747z"/>
</g>
<g>
	<path fill="#FFFFFF" d="M169.642,79.476h4.354v0.875h-3.31v2.687h3.058v0.863h-3.058v3.658h-1.043V79.476z"/>
	<path fill="#FFFFFF" d="M175.138,83.565c0-0.684-0.012-1.271-0.048-1.811h0.923l0.036,1.139h0.048
		c0.264-0.779,0.899-1.271,1.607-1.271c0.12,0,0.204,0.012,0.3,0.036v0.996c-0.108-0.024-0.216-0.036-0.36-0.036
		c-0.744,0-1.271,0.564-1.416,1.355c-0.024,0.144-0.048,0.312-0.048,0.492v3.094h-1.043V83.565z"/>
	<path fill="#FFFFFF" d="M182.216,87.559l-0.084-0.731h-0.036c-0.324,0.456-0.947,0.863-1.775,0.863
		c-1.175,0-1.775-0.828-1.775-1.667c0-1.403,1.247-2.171,3.49-2.159v-0.12c0-0.479-0.132-1.343-1.319-1.343
		c-0.54,0-1.104,0.168-1.511,0.432l-0.24-0.695c0.48-0.312,1.175-0.516,1.907-0.516c1.775,0,2.207,1.211,2.207,2.375v2.171
		c0,0.503,0.024,0.995,0.096,1.391H182.216z M182.06,84.597c-1.151-0.024-2.458,0.18-2.458,1.307c0,0.684,0.456,1.008,0.996,1.008
		c0.755,0,1.235-0.48,1.403-0.972c0.036-0.108,0.06-0.228,0.06-0.336V84.597z"/>
	<path fill="#FFFFFF" d="M184.786,83.325c0-0.6-0.012-1.091-0.048-1.571h0.923l0.048,0.936h0.036
		c0.324-0.552,0.864-1.067,1.823-1.067c0.792,0,1.391,0.479,1.643,1.163h0.024c0.18-0.324,0.408-0.576,0.647-0.755
		c0.348-0.264,0.731-0.408,1.283-0.408c0.768,0,1.907,0.503,1.907,2.519v3.418h-1.032v-3.286c0-1.115-0.408-1.787-1.259-1.787
		c-0.6,0-1.067,0.444-1.247,0.959c-0.048,0.144-0.084,0.336-0.084,0.528v3.586h-1.032v-3.478c0-0.923-0.408-1.595-1.211-1.595
		c-0.66,0-1.14,0.528-1.308,1.056c-0.06,0.156-0.084,0.335-0.084,0.516v3.502h-1.031V83.325z"/>
	<path fill="#FFFFFF" d="M195.381,84.849c0.024,1.427,0.936,2.015,1.991,2.015c0.755,0,1.211-0.132,1.607-0.3l0.18,0.756
		c-0.372,0.168-1.007,0.36-1.931,0.36c-1.787,0-2.854-1.175-2.854-2.927c0-1.751,1.032-3.13,2.723-3.13
		c1.895,0,2.399,1.667,2.399,2.734c0,0.216-0.024,0.384-0.036,0.492H195.381z M198.476,84.093c0.012-0.671-0.276-1.715-1.463-1.715
		c-1.067,0-1.535,0.983-1.619,1.715H198.476z"/>
	<path fill="#FFFFFF" d="M203.014,87.559v-0.647l0.828-0.804c1.991-1.895,2.891-2.902,2.902-4.078c0-0.792-0.384-1.523-1.547-1.523
		c-0.708,0-1.295,0.36-1.655,0.66l-0.336-0.744c0.54-0.456,1.308-0.792,2.207-0.792c1.679,0,2.387,1.151,2.387,2.267
		c0,1.439-1.043,2.603-2.687,4.186l-0.624,0.576v0.024h3.502v0.875H203.014z"/>
</g>
<g>
	<path fill="#FFFFFF" d="M295.975,79.476h4.354v0.875h-3.311v2.687h3.059v0.863h-3.059v3.658h-1.043V79.476z"/>
	<path fill="#FFFFFF" d="M301.471,83.565c0-0.684-0.013-1.271-0.049-1.811h0.924l0.036,1.139h0.048
		c0.264-0.779,0.899-1.271,1.607-1.271c0.119,0,0.203,0.012,0.3,0.036v0.996c-0.108-0.024-0.216-0.036-0.36-0.036
		c-0.743,0-1.271,0.564-1.415,1.355c-0.024,0.144-0.048,0.312-0.048,0.492v3.094h-1.043V83.565z"/>
	<path fill="#FFFFFF" d="M308.549,87.559l-0.084-0.731h-0.036c-0.323,0.456-0.947,0.863-1.774,0.863
		c-1.176,0-1.775-0.828-1.775-1.667c0-1.403,1.247-2.171,3.49-2.159v-0.12c0-0.479-0.133-1.343-1.319-1.343
		c-0.54,0-1.104,0.168-1.511,0.432l-0.24-0.695c0.479-0.312,1.175-0.516,1.906-0.516c1.775,0,2.207,1.211,2.207,2.375v2.171
		c0,0.503,0.023,0.995,0.096,1.391H308.549z M308.393,84.597c-1.151-0.024-2.459,0.18-2.459,1.307c0,0.684,0.457,1.008,0.996,1.008
		c0.756,0,1.235-0.48,1.403-0.972c0.036-0.108,0.06-0.228,0.06-0.336V84.597z"/>
	<path fill="#FFFFFF" d="M311.119,83.325c0-0.6-0.012-1.091-0.048-1.571h0.924l0.047,0.936h0.037
		c0.323-0.552,0.863-1.067,1.822-1.067c0.792,0,1.392,0.479,1.644,1.163h0.024c0.18-0.324,0.407-0.576,0.646-0.755
		c0.348-0.264,0.732-0.408,1.283-0.408c0.768,0,1.908,0.503,1.908,2.519v3.418h-1.032v-3.286c0-1.115-0.407-1.787-1.259-1.787
		c-0.6,0-1.068,0.444-1.248,0.959c-0.047,0.144-0.084,0.336-0.084,0.528v3.586h-1.031v-3.478c0-0.923-0.408-1.595-1.211-1.595
		c-0.66,0-1.14,0.528-1.308,1.056c-0.06,0.156-0.084,0.335-0.084,0.516v3.502h-1.031V83.325z"/>
	<path fill="#FFFFFF" d="M321.714,84.849c0.024,1.427,0.936,2.015,1.991,2.015c0.755,0,1.211-0.132,1.606-0.3l0.181,0.756
		c-0.373,0.168-1.008,0.36-1.932,0.36c-1.787,0-2.854-1.175-2.854-2.927c0-1.751,1.032-3.13,2.723-3.13
		c1.896,0,2.399,1.667,2.399,2.734c0,0.216-0.025,0.384-0.037,0.492H321.714z M324.809,84.093c0.012-0.671-0.276-1.715-1.464-1.715
		c-1.067,0-1.535,0.983-1.619,1.715H324.809z"/>
	<path fill="#FFFFFF" d="M329.598,86.348c0.301,0.192,0.996,0.492,1.728,0.492c1.355,0,1.774-0.863,1.763-1.511
		c-0.012-1.091-0.995-1.559-2.015-1.559h-0.587v-0.792h0.587c0.768,0,1.739-0.396,1.739-1.319c0-0.624-0.396-1.175-1.367-1.175
		c-0.624,0-1.224,0.276-1.559,0.516l-0.276-0.768c0.407-0.3,1.199-0.6,2.038-0.6c1.535,0,2.231,0.912,2.231,1.859
		c0,0.804-0.479,1.487-1.439,1.835v0.024c0.96,0.192,1.739,0.911,1.739,2.003c0,1.247-0.972,2.338-2.842,2.338
		c-0.876,0-1.644-0.276-2.027-0.528L329.598,86.348z"/>
</g>
<g>
	<path fill="#FFFFFF" d="M421.641,79.476h4.354v0.875h-3.31v2.687h3.058v0.863h-3.058v3.658h-1.044V79.476z"/>
	<path fill="#FFFFFF" d="M427.137,83.565c0-0.684-0.012-1.271-0.047-1.811h0.923l0.036,1.139h0.048
		c0.264-0.779,0.899-1.271,1.606-1.271c0.121,0,0.205,0.012,0.301,0.036v0.996c-0.108-0.024-0.217-0.036-0.359-0.036
		c-0.744,0-1.271,0.564-1.416,1.355c-0.023,0.144-0.048,0.312-0.048,0.492v3.094h-1.044V83.565z"/>
	<path fill="#FFFFFF" d="M434.216,87.559l-0.084-0.731h-0.036c-0.324,0.456-0.947,0.863-1.775,0.863
		c-1.175,0-1.774-0.828-1.774-1.667c0-1.403,1.247-2.171,3.489-2.159v-0.12c0-0.479-0.131-1.343-1.318-1.343
		c-0.54,0-1.104,0.168-1.512,0.432l-0.24-0.695c0.48-0.312,1.176-0.516,1.908-0.516c1.774,0,2.206,1.211,2.206,2.375v2.171
		c0,0.503,0.024,0.995,0.097,1.391H434.216z M434.06,84.597c-1.151-0.024-2.458,0.18-2.458,1.307c0,0.684,0.455,1.008,0.995,1.008
		c0.755,0,1.235-0.48,1.403-0.972c0.035-0.108,0.06-0.228,0.06-0.336V84.597z"/>
	<path fill="#FFFFFF" d="M436.786,83.325c0-0.6-0.012-1.091-0.048-1.571h0.923l0.049,0.936h0.035
		c0.324-0.552,0.864-1.067,1.824-1.067c0.791,0,1.391,0.479,1.643,1.163h0.023c0.18-0.324,0.408-0.576,0.648-0.755
		c0.348-0.264,0.73-0.408,1.283-0.408c0.768,0,1.906,0.503,1.906,2.519v3.418h-1.031v-3.286c0-1.115-0.408-1.787-1.26-1.787
		c-0.6,0-1.066,0.444-1.246,0.959c-0.049,0.144-0.084,0.336-0.084,0.528v3.586h-1.032v-3.478c0-0.923-0.407-1.595-1.211-1.595
		c-0.659,0-1.14,0.528-1.308,1.056c-0.06,0.156-0.084,0.335-0.084,0.516v3.502h-1.031V83.325z"/>
	<path fill="#FFFFFF" d="M447.381,84.849c0.023,1.427,0.936,2.015,1.99,2.015c0.756,0,1.212-0.132,1.607-0.3l0.18,0.756
		c-0.371,0.168-1.007,0.36-1.931,0.36c-1.787,0-2.854-1.175-2.854-2.927c0-1.751,1.031-3.13,2.723-3.13
		c1.895,0,2.398,1.667,2.398,2.734c0,0.216-0.023,0.384-0.035,0.492H447.381z M450.475,84.093c0.012-0.671-0.275-1.715-1.463-1.715
		c-1.067,0-1.535,0.983-1.619,1.715H450.475z"/>
	<path fill="#FFFFFF" d="M458.276,87.559v-2.123h-3.622v-0.695l3.479-4.978h1.14v4.846h1.091v0.827h-1.091v2.123H458.276z
		 M458.276,84.609v-2.603c0-0.408,0.012-0.816,0.036-1.224h-0.036c-0.24,0.456-0.432,0.792-0.647,1.151l-1.907,2.651v0.024H458.276z
		"/>
</g>
<g>
	<path fill="#FFFFFF" d="M6.729,13.579c-0.336,0.168-1.092,0.348-2.075,0.348c-2.794,0-4.233-1.739-4.233-4.042
		c0-2.758,1.967-4.293,4.414-4.293c0.947,0,1.667,0.192,1.991,0.36L6.453,7.403c-0.372-0.156-0.888-0.3-1.535-0.3
		c-1.451,0-2.579,0.875-2.579,2.674c0,1.619,0.959,2.639,2.59,2.639c0.552,0,1.164-0.12,1.523-0.264L6.729,13.579z"/>
	<path fill="#FFFFFF" d="M13.437,10.809c0,2.147-1.523,3.13-3.094,3.13c-1.715,0-3.034-1.127-3.034-3.022
		c0-1.895,1.247-3.106,3.13-3.106C12.237,7.811,13.437,9.046,13.437,10.809z M9.191,10.869c0,1.007,0.42,1.763,1.199,1.763
		c0.708,0,1.164-0.708,1.164-1.763c0-0.875-0.336-1.763-1.164-1.763C9.515,9.105,9.191,10.005,9.191,10.869z"/>
	<path fill="#FFFFFF" d="M14.567,9.813c0-0.732-0.024-1.355-0.048-1.871h1.583l0.084,0.804h0.036
		c0.24-0.372,0.839-0.936,1.811-0.936c1.199,0,2.099,0.792,2.099,2.519v3.478H18.31v-3.25c0-0.756-0.264-1.271-0.924-1.271
		c-0.503,0-0.803,0.348-0.923,0.684c-0.048,0.108-0.072,0.288-0.072,0.456v3.382h-1.823V9.813z"/>
	<path fill="#FFFFFF" d="M23.566,6.263v1.679h1.307v1.343h-1.307v2.123c0,0.708,0.168,1.032,0.72,1.032
		c0.228,0,0.408-0.024,0.54-0.048l0.012,1.379c-0.24,0.096-0.672,0.156-1.188,0.156c-0.588,0-1.08-0.204-1.367-0.504
		c-0.336-0.348-0.504-0.912-0.504-1.739V9.286H21V7.942h0.779V6.671L23.566,6.263z"/>
	<path fill="#FFFFFF" d="M27.274,11.457c0.06,0.755,0.804,1.115,1.655,1.115c0.624,0,1.127-0.084,1.619-0.24l0.24,1.235
		c-0.6,0.24-1.332,0.36-2.123,0.36c-1.991,0-3.13-1.151-3.13-2.986c0-1.487,0.923-3.13,2.962-3.13c1.895,0,2.614,1.475,2.614,2.926
		c0,0.312-0.036,0.588-0.06,0.72H27.274z M29.421,10.209c0-0.444-0.192-1.187-1.032-1.187c-0.768,0-1.079,0.695-1.127,1.187H29.421z
		"/>
	<path fill="#FFFFFF" d="M32.207,9.813c0-0.732-0.024-1.355-0.048-1.871h1.583l0.084,0.804h0.036
		c0.24-0.372,0.839-0.936,1.811-0.936c1.199,0,2.099,0.792,2.099,2.519v3.478h-1.823v-3.25c0-0.756-0.264-1.271-0.924-1.271
		c-0.503,0-0.803,0.348-0.923,0.684c-0.048,0.108-0.072,0.288-0.072,0.456v3.382h-1.823V9.813z"/>
	<path fill="#FFFFFF" d="M41.207,6.263v1.679h1.307v1.343h-1.307v2.123c0,0.708,0.168,1.032,0.72,1.032
		c0.228,0,0.408-0.024,0.54-0.048l0.012,1.379c-0.24,0.096-0.672,0.156-1.188,0.156c-0.588,0-1.08-0.204-1.367-0.504
		c-0.336-0.348-0.504-0.912-0.504-1.739V9.286H38.64V7.942h0.779V6.671L41.207,6.263z"/>
	<path fill="#FFFFFF" d="M2.147,20.735v1.667h1.511v0.803H2.147v3.13c0,0.72,0.204,1.127,0.792,1.127
		c0.276,0,0.479-0.036,0.611-0.072l0.048,0.792c-0.204,0.084-0.528,0.144-0.936,0.144c-0.492,0-0.888-0.156-1.14-0.444
		c-0.3-0.312-0.408-0.828-0.408-1.511v-3.167H0.216v-0.803h0.899v-1.392L2.147,20.735z"/>
	<path fill="#FFFFFF" d="M4.847,24.213c0-0.684-0.012-1.271-0.048-1.811h0.923l0.036,1.139h0.048
		c0.264-0.779,0.899-1.271,1.607-1.271c0.12,0,0.204,0.012,0.3,0.036v0.996c-0.108-0.024-0.216-0.036-0.36-0.036
		c-0.744,0-1.271,0.564-1.416,1.355c-0.024,0.144-0.048,0.312-0.048,0.492v3.094H4.847V24.213z"/>
	<path fill="#FFFFFF" d="M11.926,28.207l-0.084-0.731h-0.036c-0.324,0.456-0.947,0.863-1.775,0.863
		c-1.175,0-1.775-0.828-1.775-1.667c0-1.403,1.247-2.171,3.49-2.159v-0.12c0-0.479-0.132-1.343-1.319-1.343
		c-0.54,0-1.104,0.168-1.511,0.432l-0.24-0.695c0.48-0.312,1.175-0.516,1.907-0.516c1.775,0,2.207,1.211,2.207,2.375v2.171
		c0,0.503,0.024,0.995,0.096,1.391H11.926z M11.77,25.245c-1.151-0.024-2.458,0.18-2.458,1.307c0,0.684,0.456,1.008,0.996,1.008
		c0.755,0,1.235-0.48,1.403-0.972c0.036-0.108,0.06-0.228,0.06-0.336V25.245z"/>
	<path fill="#FFFFFF" d="M14.496,23.973c0-0.6-0.012-1.091-0.048-1.571h0.936l0.06,0.959h0.024c0.288-0.552,0.959-1.091,1.919-1.091
		c0.803,0,2.051,0.479,2.051,2.47v3.466h-1.056v-3.346c0-0.936-0.348-1.715-1.343-1.715c-0.695,0-1.235,0.492-1.415,1.079
		c-0.048,0.132-0.072,0.312-0.072,0.492v3.49h-1.056V23.973z"/>
	<path fill="#FFFFFF" d="M21.011,27.127c0.312,0.204,0.864,0.42,1.392,0.42c0.768,0,1.127-0.384,1.127-0.863
		c0-0.504-0.3-0.78-1.079-1.068c-1.043-0.372-1.535-0.947-1.535-1.643c0-0.935,0.755-1.703,2.003-1.703
		c0.587,0,1.103,0.167,1.427,0.359l-0.264,0.768c-0.228-0.144-0.647-0.335-1.187-0.335c-0.624,0-0.972,0.36-0.972,0.792
		c0,0.479,0.348,0.695,1.104,0.983c1.007,0.384,1.523,0.888,1.523,1.751c0,1.02-0.792,1.739-2.171,1.739
		c-0.635,0-1.223-0.156-1.631-0.396L21.011,27.127z"/>
	<path fill="#FFFFFF" d="M26.015,28.207v-5.001H25.2v-0.803h0.815v-0.276c0-0.815,0.18-1.559,0.672-2.027
		c0.396-0.384,0.923-0.54,1.415-0.54c0.372,0,0.696,0.084,0.899,0.168l-0.144,0.816c-0.156-0.072-0.372-0.132-0.671-0.132
		c-0.899,0-1.127,0.792-1.127,1.679v0.312h1.403v0.803h-1.403v5.001H26.015z"/>
	<path fill="#FFFFFF" d="M34.508,25.257c0,2.146-1.487,3.082-2.89,3.082c-1.571,0-2.783-1.151-2.783-2.986
		c0-1.943,1.271-3.082,2.878-3.082C33.381,22.271,34.508,23.481,34.508,25.257z M29.903,25.316c0,1.271,0.732,2.231,1.763,2.231
		c1.007,0,1.763-0.947,1.763-2.255c0-0.983-0.492-2.23-1.739-2.23C30.443,23.062,29.903,24.213,29.903,25.316z"/>
	<path fill="#FFFFFF" d="M35.843,24.213c0-0.684-0.012-1.271-0.048-1.811h0.923l0.036,1.139h0.048
		c0.264-0.779,0.899-1.271,1.607-1.271c0.12,0,0.204,0.012,0.3,0.036v0.996c-0.108-0.024-0.216-0.036-0.36-0.036
		c-0.744,0-1.271,0.564-1.416,1.355c-0.024,0.144-0.048,0.312-0.048,0.492v3.094h-1.043V24.213z"/>
	<path fill="#FFFFFF" d="M39.815,23.973c0-0.6-0.012-1.091-0.048-1.571h0.923l0.048,0.936h0.036
		c0.324-0.552,0.864-1.067,1.823-1.067c0.792,0,1.391,0.479,1.643,1.163h0.024c0.18-0.324,0.408-0.576,0.647-0.755
		c0.348-0.264,0.731-0.408,1.283-0.408c0.768,0,1.907,0.503,1.907,2.519v3.418h-1.032v-3.286c0-1.115-0.408-1.787-1.259-1.787
		c-0.6,0-1.067,0.444-1.247,0.959c-0.048,0.144-0.084,0.336-0.084,0.528v3.586h-1.032v-3.478c0-0.923-0.408-1.595-1.211-1.595
		c-0.66,0-1.14,0.528-1.308,1.056c-0.06,0.156-0.084,0.335-0.084,0.516v3.502h-1.031V23.973z"/>
	<path fill="#FFFFFF" d="M49.571,23.362c0-0.444,0.3-0.756,0.72-0.756s0.696,0.312,0.708,0.756c0,0.419-0.276,0.744-0.72,0.744
		C49.859,24.105,49.571,23.781,49.571,23.362z M49.571,27.595c0-0.444,0.3-0.755,0.72-0.755s0.696,0.312,0.708,0.755
		c0,0.42-0.276,0.744-0.72,0.744C49.859,28.339,49.571,28.015,49.571,27.595z"/>
	<path fill="#FFFFFF" d="M58.667,20.735v1.667h1.511v0.803h-1.511v3.13c0,0.72,0.204,1.127,0.792,1.127
		c0.276,0,0.479-0.036,0.611-0.072l0.048,0.792c-0.204,0.084-0.528,0.144-0.936,0.144c-0.492,0-0.888-0.156-1.14-0.444
		c-0.3-0.312-0.408-0.828-0.408-1.511v-3.167h-0.899v-0.803h0.899v-1.392L58.667,20.735z"/>
	<path fill="#FFFFFF" d="M61.367,24.213c0-0.684-0.012-1.271-0.048-1.811h0.923l0.036,1.139h0.048
		c0.264-0.779,0.899-1.271,1.607-1.271c0.12,0,0.204,0.012,0.3,0.036v0.996c-0.108-0.024-0.216-0.036-0.36-0.036
		c-0.744,0-1.271,0.564-1.416,1.355c-0.024,0.144-0.048,0.312-0.048,0.492v3.094h-1.043V24.213z"/>
	<path fill="#FFFFFF" d="M68.445,28.207l-0.084-0.731h-0.036c-0.324,0.456-0.947,0.863-1.775,0.863
		c-1.175,0-1.775-0.828-1.775-1.667c0-1.403,1.247-2.171,3.49-2.159v-0.12c0-0.479-0.132-1.343-1.319-1.343
		c-0.54,0-1.104,0.168-1.511,0.432l-0.24-0.695c0.48-0.312,1.175-0.516,1.907-0.516c1.775,0,2.207,1.211,2.207,2.375v2.171
		c0,0.503,0.024,0.995,0.096,1.391H68.445z M68.289,25.245c-1.151-0.024-2.458,0.18-2.458,1.307c0,0.684,0.456,1.008,0.996,1.008
		c0.755,0,1.235-0.48,1.403-0.972c0.036-0.108,0.06-0.228,0.06-0.336V25.245z"/>
	<path fill="#FFFFFF" d="M71.015,23.973c0-0.6-0.012-1.091-0.048-1.571h0.936l0.06,0.959h0.024c0.288-0.552,0.959-1.091,1.919-1.091
		c0.803,0,2.051,0.479,2.051,2.47v3.466H74.9v-3.346c0-0.936-0.348-1.715-1.343-1.715c-0.695,0-1.235,0.492-1.415,1.079
		c-0.048,0.132-0.072,0.312-0.072,0.492v3.49h-1.056V23.973z"/>
	<path fill="#FFFFFF" d="M77.531,27.127c0.312,0.204,0.864,0.42,1.392,0.42c0.768,0,1.127-0.384,1.127-0.863
		c0-0.504-0.3-0.78-1.079-1.068c-1.043-0.372-1.535-0.947-1.535-1.643c0-0.935,0.755-1.703,2.003-1.703
		c0.587,0,1.103,0.167,1.427,0.359l-0.264,0.768c-0.228-0.144-0.647-0.335-1.187-0.335c-0.624,0-0.972,0.36-0.972,0.792
		c0,0.479,0.348,0.695,1.104,0.983c1.007,0.384,1.523,0.888,1.523,1.751c0,1.02-0.792,1.739-2.171,1.739
		c-0.635,0-1.223-0.156-1.631-0.396L77.531,27.127z"/>
	<path fill="#FFFFFF" d="M82.427,19.692h1.056v8.515h-1.056V19.692z"/>
	<path fill="#FFFFFF" d="M88.473,28.207l-0.084-0.731h-0.036c-0.324,0.456-0.947,0.863-1.775,0.863
		c-1.175,0-1.775-0.828-1.775-1.667c0-1.403,1.247-2.171,3.49-2.159v-0.12c0-0.479-0.132-1.343-1.319-1.343
		c-0.54,0-1.104,0.168-1.511,0.432l-0.24-0.695c0.48-0.312,1.175-0.516,1.907-0.516c1.775,0,2.207,1.211,2.207,2.375v2.171
		c0,0.503,0.024,0.995,0.096,1.391H88.473z M88.316,25.245c-1.151-0.024-2.458,0.18-2.458,1.307c0,0.684,0.456,1.008,0.996,1.008
		c0.755,0,1.235-0.48,1.403-0.972c0.036-0.108,0.06-0.228,0.06-0.336V25.245z"/>
	<path fill="#FFFFFF" d="M92.266,20.735v1.667h1.511v0.803h-1.511v3.13c0,0.72,0.204,1.127,0.792,1.127
		c0.276,0,0.479-0.036,0.611-0.072l0.048,0.792c-0.204,0.084-0.528,0.144-0.936,0.144c-0.492,0-0.888-0.156-1.14-0.444
		c-0.3-0.312-0.408-0.828-0.408-1.511v-3.167h-0.899v-0.803h0.899v-1.392L92.266,20.735z"/>
	<path fill="#FFFFFF" d="M95.482,25.497c0.024,1.427,0.936,2.015,1.991,2.015c0.755,0,1.211-0.132,1.607-0.3l0.18,0.756
		c-0.372,0.168-1.007,0.36-1.931,0.36c-1.787,0-2.854-1.176-2.854-2.927s1.032-3.13,2.723-3.13c1.895,0,2.399,1.667,2.399,2.734
		c0,0.216-0.024,0.384-0.036,0.492H95.482z M98.577,24.741c0.012-0.671-0.276-1.715-1.463-1.715c-1.067,0-1.535,0.983-1.619,1.715
		H98.577z"/>
	<path fill="#FFFFFF" d="M100.822,26.996c0.3,0.192,0.996,0.492,1.727,0.492c1.355,0,1.775-0.863,1.763-1.511
		c-0.012-1.091-0.996-1.559-2.015-1.559h-0.587v-0.792h0.587c0.768,0,1.739-0.396,1.739-1.319c0-0.624-0.396-1.175-1.367-1.175
		c-0.624,0-1.224,0.276-1.559,0.516l-0.276-0.768c0.408-0.3,1.199-0.6,2.039-0.6c1.535,0,2.231,0.912,2.231,1.859
		c0,0.804-0.48,1.487-1.439,1.835v0.024c0.959,0.192,1.739,0.911,1.739,2.002c0,1.248-0.972,2.339-2.842,2.339
		c-0.875,0-1.643-0.276-2.027-0.528L100.822,26.996z"/>
	<path fill="#FFFFFF" d="M112.075,19.692v7.016c0,0.516,0.012,1.103,0.048,1.499h-0.947l-0.048-1.007h-0.024
		c-0.324,0.647-1.032,1.139-1.979,1.139c-1.403,0-2.483-1.188-2.483-2.95c-0.012-1.931,1.188-3.118,2.603-3.118
		c0.888,0,1.487,0.419,1.751,0.887h0.024v-3.466H112.075z M111.02,24.765c0-0.132-0.012-0.312-0.048-0.444
		c-0.156-0.672-0.731-1.224-1.523-1.224c-1.091,0-1.739,0.959-1.739,2.243c0,1.175,0.576,2.146,1.715,2.146
		c0.708,0,1.355-0.468,1.547-1.259c0.036-0.144,0.048-0.288,0.048-0.456V24.765z"/>
	<path fill="#FFFFFF" d="M116.121,19.884c-0.876,1.175-1.511,2.734-1.511,4.905c0,2.135,0.66,3.67,1.511,4.869h-0.828
		c-0.756-0.996-1.571-2.531-1.571-4.869c0.012-2.363,0.815-3.898,1.571-4.905H116.121z"/>
	<path fill="#FFFFFF" d="M119.685,24.573v0.779h-2.962v-0.779H119.685z"/>
	<path fill="#FFFFFF" d="M122.877,21.395h-0.024l-1.355,0.732l-0.204-0.804l1.703-0.912h0.9v7.796h-1.02V21.395z"/>
	<path fill="#FFFFFF" d="M131.923,24.225c0,2.651-0.983,4.114-2.71,4.114c-1.523,0-2.555-1.427-2.579-4.006
		c0-2.614,1.127-4.054,2.71-4.054C130.987,20.279,131.923,21.743,131.923,24.225z M127.689,24.345c0,2.027,0.624,3.178,1.583,3.178
		c1.08,0,1.595-1.259,1.595-3.25c0-1.919-0.492-3.179-1.583-3.179C128.361,21.095,127.689,22.222,127.689,24.345z"/>
	<path fill="#FFFFFF" d="M138.079,24.225c0,2.651-0.983,4.114-2.71,4.114c-1.523,0-2.555-1.427-2.579-4.006
		c0-2.614,1.127-4.054,2.71-4.054C137.144,20.279,138.079,21.743,138.079,24.225z M133.846,24.345c0,2.027,0.624,3.178,1.583,3.178
		c1.08,0,1.595-1.259,1.595-3.25c0-1.919-0.492-3.179-1.583-3.179C134.517,21.095,133.846,22.222,133.846,24.345z"/>
	<path fill="#FFFFFF" d="M139.39,24.297c0-0.744-0.024-1.343-0.048-1.895h0.947l0.048,0.995h0.024
		c0.432-0.708,1.115-1.127,2.062-1.127c1.403,0,2.459,1.187,2.459,2.95c0,2.087-1.271,3.118-2.639,3.118
		c-0.768,0-1.439-0.336-1.787-0.912h-0.024v3.154h-1.043V24.297z M140.433,25.844c0,0.156,0.024,0.3,0.048,0.432
		c0.192,0.732,0.828,1.235,1.583,1.235c1.115,0,1.763-0.911,1.763-2.243c0-1.163-0.611-2.159-1.727-2.159
		c-0.72,0-1.391,0.516-1.595,1.307c-0.036,0.132-0.072,0.288-0.072,0.432V25.844z"/>
	<path fill="#FFFFFF" d="M146.541,22.402l0.828,1.247c0.216,0.324,0.396,0.624,0.587,0.948h0.036
		c0.192-0.348,0.384-0.648,0.576-0.959l0.815-1.235h1.14l-1.979,2.806l2.039,2.999h-1.2l-0.851-1.307
		c-0.228-0.336-0.42-0.66-0.624-1.008h-0.024c-0.192,0.348-0.396,0.66-0.612,1.008l-0.839,1.307h-1.164l2.063-2.962l-1.967-2.842
		H146.541z"/>
	<path fill="#FFFFFF" d="M150.922,29.682c0.264-0.708,0.588-1.991,0.72-2.866l1.175-0.12c-0.276,1.02-0.804,2.351-1.14,2.915
		L150.922,29.682z"/>
	<path fill="#FFFFFF" d="M161.479,24.225c0,2.651-0.983,4.114-2.71,4.114c-1.523,0-2.555-1.427-2.579-4.006
		c0-2.614,1.127-4.054,2.71-4.054C160.543,20.279,161.479,21.743,161.479,24.225z M157.245,24.345c0,2.027,0.624,3.178,1.583,3.178
		c1.08,0,1.595-1.259,1.595-3.25c0-1.919-0.492-3.179-1.583-3.179C157.917,21.095,157.245,22.222,157.245,24.345z"/>
	<path fill="#FFFFFF" d="M162.789,24.297c0-0.744-0.024-1.343-0.048-1.895h0.947l0.048,0.995h0.024
		c0.432-0.708,1.115-1.127,2.062-1.127c1.403,0,2.459,1.187,2.459,2.95c0,2.087-1.271,3.118-2.639,3.118
		c-0.768,0-1.439-0.336-1.787-0.912h-0.024v3.154h-1.043V24.297z M163.833,25.844c0,0.156,0.024,0.3,0.048,0.432
		c0.192,0.732,0.828,1.235,1.583,1.235c1.115,0,1.763-0.911,1.763-2.243c0-1.163-0.611-2.159-1.727-2.159
		c-0.72,0-1.391,0.516-1.595,1.307c-0.036,0.132-0.072,0.288-0.072,0.432V25.844z"/>
	<path fill="#FFFFFF" d="M169.94,22.402l0.828,1.247c0.216,0.324,0.396,0.624,0.587,0.948h0.036
		c0.192-0.348,0.384-0.648,0.576-0.959l0.815-1.235h1.14l-1.979,2.806l2.039,2.999h-1.2l-0.851-1.307
		c-0.228-0.336-0.42-0.66-0.624-1.008h-0.024c-0.192,0.348-0.396,0.66-0.612,1.008l-0.839,1.307h-1.164l2.063-2.962l-1.967-2.842
		H169.94z"/>
	<path fill="#FFFFFF" d="M174.321,29.682c0.264-0.708,0.588-1.991,0.72-2.866l1.175-0.12c-0.276,1.02-0.804,2.351-1.14,2.915
		L174.321,29.682z"/>
	<path fill="#FFFFFF" d="M184.878,24.225c0,2.651-0.983,4.114-2.71,4.114c-1.523,0-2.555-1.427-2.579-4.006
		c0-2.614,1.127-4.054,2.71-4.054C183.942,20.279,184.878,21.743,184.878,24.225z M180.645,24.345c0,2.027,0.624,3.178,1.583,3.178
		c1.08,0,1.595-1.259,1.595-3.25c0-1.919-0.492-3.179-1.583-3.179C181.316,21.095,180.645,22.222,180.645,24.345z"/>
	<path fill="#FFFFFF" d="M186.188,24.297c0-0.744-0.024-1.343-0.048-1.895h0.947l0.048,0.995h0.024
		c0.432-0.708,1.115-1.127,2.062-1.127c1.403,0,2.459,1.187,2.459,2.95c0,2.087-1.271,3.118-2.639,3.118
		c-0.768,0-1.439-0.336-1.787-0.912h-0.024v3.154h-1.043V24.297z M187.232,25.844c0,0.156,0.024,0.3,0.048,0.432
		c0.192,0.732,0.828,1.235,1.583,1.235c1.115,0,1.763-0.911,1.763-2.243c0-1.163-0.611-2.159-1.727-2.159
		c-0.72,0-1.391,0.516-1.595,1.307c-0.036,0.132-0.072,0.288-0.072,0.432V25.844z"/>
	<path fill="#FFFFFF" d="M193.34,22.402l0.828,1.247c0.216,0.324,0.396,0.624,0.587,0.948h0.036
		c0.192-0.348,0.384-0.648,0.576-0.959l0.815-1.235h1.14l-1.979,2.806l2.039,2.999h-1.2l-0.851-1.307
		c-0.228-0.336-0.42-0.66-0.624-1.008h-0.024c-0.192,0.348-0.396,0.66-0.612,1.008l-0.839,1.307h-1.164l2.063-2.962l-1.967-2.842
		H193.34z"/>
	<path fill="#FFFFFF" d="M197.769,29.658c0.852-1.188,1.511-2.747,1.511-4.905c0-2.147-0.647-3.682-1.511-4.869h0.815
		c0.768,0.983,1.571,2.519,1.571,4.881c0,2.351-0.804,3.874-1.571,4.893H197.769z"/>
</g>
<g>
</g>
<g>
</g>
<g>
</g>
<g>
</g>
<g>
</g>
<g>
</g>
</svg>
