<?xml version="1.0" encoding="iso-8859-1"?>
<!-- Generator: Adobe Illustrator 16.0.0, SVG Export Plug-In . SVG Version: 6.00 Build 0)  -->
<!DOCTYPE svg PUBLIC "-//W3C//DTD SVG 1.1//EN" "http://www.w3.org/Graphics/SVG/1.1/DTD/svg11.dtd">
<svg version="1.1" id="Layer_1" xmlns="http://www.w3.org/2000/svg" xmlns:xlink="http://www.w3.org/1999/xlink" x="0px" y="0px"
	 width="100px" height="100px" viewBox="0 0 100 100" enable-background="new 0 0 100 100" xml:space="preserve">
<path fill="#D6D6D6" d="M89.747,38.386c0-1.958-1.465-3.558-3.355-3.806V18.962c1.891-0.248,3.355-1.848,3.355-3.805
	c0-2.13-1.727-3.856-3.855-3.856c-1.959,0-3.558,1.465-3.805,3.356H65.761c-0.247-1.891-1.847-3.356-3.805-3.356
	c-1.959,0-3.559,1.465-3.806,3.356l-16.325,0c-0.248-1.891-1.847-3.356-3.805-3.356c-1.958,0-3.559,1.465-3.806,3.356H17.89
	c-0.248-1.891-1.848-3.356-3.805-3.356c-2.13,0-3.856,1.726-3.856,3.856c0,1.958,1.465,3.558,3.356,3.805V34.58
	c-1.891,0.248-3.356,1.847-3.356,3.806s1.465,3.558,3.356,3.805v15.618c-1.891,0.248-3.356,1.848-3.356,3.807
	c0,1.957,1.465,3.557,3.356,3.805v15.619c-1.891,0.246-3.356,1.846-3.356,3.805c0,2.129,1.727,3.855,3.856,3.855
	c1.958,0,3.558-1.465,3.805-3.355h16.324c0.248,1.891,1.848,3.355,3.806,3.355c1.958,0,3.558-1.465,3.805-3.355H58.15
	c0.247,1.891,1.847,3.355,3.806,3.355c1.958,0,3.558-1.465,3.805-3.355h16.326c0.247,1.891,1.846,3.355,3.805,3.355
	c2.129,0,3.855-1.727,3.855-3.855c0-1.959-1.465-3.559-3.355-3.805V65.42c1.891-0.248,3.355-1.848,3.355-3.805
	c0-1.959-1.465-3.559-3.355-3.807V42.191C88.282,41.943,89.747,40.343,89.747,38.386z M82.087,84.344H65.761
	c-0.226-1.727-1.58-3.08-3.306-3.305V65.42c1.726-0.225,3.08-1.58,3.306-3.307h16.325c0.226,1.727,1.58,3.08,3.306,3.307v15.619
	C83.666,81.264,82.312,82.617,82.087,84.344z M58.15,84.344H41.826c-0.226-1.727-1.581-3.08-3.306-3.305V65.42
	c1.726-0.227,3.08-1.58,3.306-3.307H58.15c0.225,1.727,1.579,3.08,3.305,3.307v15.619C59.729,81.264,58.376,82.617,58.15,84.344z
	 M34.214,84.344H17.89c-0.226-1.727-1.581-3.08-3.306-3.305V65.42c1.726-0.227,3.08-1.58,3.306-3.307h16.324
	c0.226,1.727,1.58,3.08,3.306,3.307v15.619C35.794,81.264,34.44,82.617,34.214,84.344z M17.89,15.657h16.324
	c0.226,1.725,1.58,3.079,3.306,3.305V34.58c-1.725,0.226-3.08,1.58-3.306,3.305H17.89c-0.226-1.726-1.581-3.08-3.306-3.305V18.962
	C16.31,18.736,17.664,17.382,17.89,15.657z M41.826,15.657l16.325,0c0.226,1.724,1.58,3.078,3.305,3.304V34.58
	c-1.726,0.227-3.079,1.581-3.305,3.306l-16.325,0c-0.226-1.726-1.581-3.08-3.306-3.305V18.962
	C40.245,18.736,41.6,17.382,41.826,15.657z M41.826,61.113c-0.226-1.725-1.581-3.078-3.306-3.305V42.191
	c1.725-0.226,3.08-1.581,3.306-3.306l16.325,0c0.226,1.725,1.579,3.079,3.305,3.305v15.618c-1.725,0.227-3.079,1.58-3.305,3.305
	H41.826z M17.89,38.885h16.324c0.226,1.725,1.58,3.08,3.306,3.306v15.618c-1.725,0.227-3.08,1.58-3.306,3.305H17.89
	c-0.226-1.725-1.581-3.078-3.306-3.305V42.191C16.31,41.965,17.665,40.611,17.89,38.885z M82.087,61.113H65.761
	c-0.226-1.727-1.58-3.08-3.306-3.305V42.191c1.726-0.226,3.08-1.58,3.306-3.305h16.326c0.226,1.725,1.579,3.079,3.305,3.305v15.618
	C83.666,58.035,82.312,59.389,82.087,61.113z M82.087,37.886H65.761c-0.226-1.726-1.58-3.08-3.306-3.306V18.962
	c1.726-0.226,3.08-1.58,3.306-3.305h16.326c0.226,1.725,1.579,3.079,3.305,3.305V34.58C83.666,34.806,82.312,36.16,82.087,37.886z"
	/>
<g>
</g>
<g>
</g>
<g>
</g>
<g>
</g>
<g>
</g>
<g>
</g>
</svg>
