<?xml version="1.0" encoding="iso-8859-1"?>
<!-- Generator: Adobe Illustrator 16.0.0, SVG Export Plug-In . SVG Version: 6.00 Build 0)  -->
<!DOCTYPE svg PUBLIC "-//W3C//DTD SVG 1.1//EN" "http://www.w3.org/Graphics/SVG/1.1/DTD/svg11.dtd">
<svg version="1.1" id="Layer_1" xmlns="http://www.w3.org/2000/svg" xmlns:xlink="http://www.w3.org/1999/xlink" x="0px" y="0px"
	 width="89.615px" height="87.273px" viewBox="0 0 89.615 87.273" enable-background="new 0 0 89.615 87.273" xml:space="preserve">
<g opacity="0.5">
	<path fill="#D6D6D6" d="M82.896,31.619c-0.285-2.235-1.901-4.599-3.715-5.356c-0.687-5.851-1.372-11.702-2.058-17.552
		c1.65,0.074,2.717-1.333,2.432-3.573c-0.312-2.434-2.045-4.829-3.87-5.108c-1.681-0.266-2.883,1.287-2.883,3.354
		C68.056,3.03,63.31,3.642,58.564,4.727C58.237,2.795,56.78,1.601,55.1,2.086c-1.681,0.484-3.01,2.424-3.174,4.418
		c-4.745,1.42-9.491,3.086-14.237,4.507c-0.164-1.788-1.493-2.778-3.173-2.294c-1.68,0.486-3.137,2.222-3.465,4.072
		c-4.746,1.085-9.491,1.697-14.237,1.344c0-1.715-1.203-3.094-2.883-3.358c-1.826-0.28-3.559,0.777-3.871,2.603
		c-0.286,1.675,0.782,3.468,2.432,4.038c-0.686,4.562-1.371,9.123-2.057,13.684c-1.814-0.262-3.431,0.573-3.716,2.255
		c-0.286,1.675,0.905,3.64,2.714,4.413c-0.686,4.562-1.371,9.123-2.057,13.684c-1.973-0.465-3.712,0.197-3.999,1.88
		c-0.285,1.675,1.028,3.812,2.996,4.789c-0.686,4.562-1.371,9.123-2.057,13.685c-2.132-0.67-3.994-0.18-4.28,1.503
		c-0.312,1.82,1.408,4.409,3.842,5.459c2.235,0.971,4.233,0.253,4.728-1.353c6.137,1.979,12.274,2.712,18.412,2.83
		c0.167,1.807,1.911,3.26,4.147,3.232c2.235-0.025,4.106-1.538,4.437-3.401c6.137-0.314,12.274-0.947,18.412-1.262
		c0.33,1.918,2.2,3.335,4.438,3.31c2.236-0.027,3.979-1.504,4.146-3.479c6.138,0.118,12.276,0.851,18.414,2.83
		c0.494,2.177,2.489,4.388,4.727,5.358c2.433,1.05,4.152,0.186,3.841-2.252c-0.286-2.235-2.148-4.944-4.279-6.106
		c-0.686-5.851-1.371-11.702-2.058-17.553c1.968,0.48,3.281-0.581,2.996-2.821c-0.286-2.235-2.025-4.772-3.998-5.733
		c-0.686-5.85-1.371-11.701-2.057-17.551C81.992,35.094,83.182,33.859,82.896,31.619z M80.895,80.371
		c-6.118-1.957-12.236-2.67-18.354-2.771c-0.355-1.812-1.938-3.24-3.865-3.414c-0.235-5.392-0.47-10.783-0.705-16.175
		c1.814-0.368,3.167-1.839,3.302-3.658c5.68-0.276,11.36,0.014,17.04,1.459c0.434,1.966,2.021,3.828,3.874,4.726
		c0.667,5.827,1.334,11.654,2.001,17.481C82.299,77.51,80.951,78.549,80.895,80.371z M53.984,77.791
		c-6.117,0.331-12.235,0.978-18.353,1.309c-0.206-1.677-1.672-2.899-3.579-3.041c0.216-5.036,0.432-10.073,0.648-15.109
		c1.834-0.37,3.304-1.854,3.587-3.57c5.68-0.678,11.36-1.65,17.04-2.328c0.283,1.737,1.753,2.96,3.587,3.043
		c0.216,5.376,0.432,10.753,0.648,16.129C55.655,74.53,54.19,76.014,53.984,77.791z M27.074,79.291
		c-6.117-0.102-12.235-0.814-18.352-2.771c-0.057-1.633-1.406-3.301-3.293-4.258c0.667-4.585,1.334-9.171,2-13.757
		c1.854,0.444,3.441-0.4,3.874-1.888c5.68,1.445,11.36,1.735,17.04,1.459c0.134,1.634,1.487,2.872,3.302,2.955
		c-0.235,5.021-0.47,10.043-0.705,15.063C29.013,76.371,27.43,77.65,27.074,79.291z M16.698,15.028
		c4.766,0.376,9.531-0.216,14.296-1.284c0.097,1.599,1.221,2.641,2.746,2.484c-0.235,5.021-0.47,10.042-0.705,15.062
		c-1.636,0.517-2.992,1.993-3.31,3.666c-5.203,0.689-10.406,0.859-15.609-0.028c-0.019-1.587-1.14-2.991-2.737-3.585
		c0.667-4.585,1.333-9.17,2-13.756C14.942,17.668,16.302,16.559,16.698,15.028z M37.66,11.989c4.766-1.405,9.531-3.057,14.297-4.461
		c0.245,1.704,1.487,2.748,3.03,2.593c0.217,5.376,0.433,10.752,0.648,16.128c-1.617,0.547-2.855,2.213-3.022,4.018
		c-5.203,1.057-10.406,2.383-15.609,3.441c-0.168-1.646-1.407-2.688-3.024-2.593c0.216-5.037,0.432-10.073,0.648-15.109
		C36.171,15.398,37.414,13.734,37.66,11.989z M36.317,56.402c-0.187-1.66-1.54-2.792-3.301-2.816
		c0.216-5.036,0.432-10.072,0.647-15.108c1.688-0.488,3.045-2.063,3.31-3.793c5.223-1.042,10.446-2.353,15.668-3.395
		c0.265,1.72,1.62,2.854,3.309,2.818c0.216,5.375,0.433,10.751,0.648,16.126c-1.762,0.429-3.114,2.004-3.301,3.793
		C47.638,54.721,41.978,55.708,36.317,56.402z M14,35.823c5.223,0.911,10.445,0.76,15.668,0.087c0.115,1.616,1.354,2.757,3.023,2.72
		c-0.235,5.021-0.469,10.042-0.704,15.062c-1.781,0.397-3.251,1.774-3.588,3.431c-5.66,0.293-11.32,0.022-16.98-1.399
		c-0.038-1.608-1.273-3.145-3.015-3.921c0.667-4.586,1.333-9.17,2-13.756C12.112,38.31,13.586,37.332,14,35.823z M78.197,54.707
		c-5.66-1.423-11.321-1.694-16.982-1.399c-0.336-1.796-1.806-3.126-3.587-3.18c-0.235-5.391-0.47-10.782-0.705-16.173
		c1.67-0.489,2.909-2.057,3.024-3.891c5.223-0.673,10.446-0.824,15.669,0.087c0.414,1.942,1.887,3.672,3.596,4.387
		c0.667,5.827,1.333,11.653,2,17.479C79.469,51.694,78.235,52.866,78.197,54.707z M75.5,29.045
		c-5.203-0.888-10.406-0.718-15.61-0.028c-0.316-1.779-1.673-3.011-3.31-2.945c-0.235-5.391-0.47-10.782-0.704-16.174
		c1.523-0.609,2.649-2.275,2.745-4.125c4.767-1.069,9.532-1.661,14.298-1.285c0.396,1.919,1.754,3.518,3.317,4.05
		c0.667,5.827,1.334,11.654,2.001,17.48C76.639,25.876,75.518,27.181,75.5,29.045z"/>
</g>
<g>
</g>
<g>
</g>
<g>
</g>
<g>
</g>
<g>
</g>
<g>
</g>
</svg>
