<?xml version="1.0" encoding="iso-8859-1"?>
<!-- Generator: Adobe Illustrator 16.0.0, SVG Export Plug-In . SVG Version: 6.00 Build 0)  -->
<!DOCTYPE svg PUBLIC "-//W3C//DTD SVG 1.1//EN" "http://www.w3.org/Graphics/SVG/1.1/DTD/svg11.dtd">
<svg version="1.1" id="Layer_1" xmlns="http://www.w3.org/2000/svg" xmlns:xlink="http://www.w3.org/1999/xlink" x="0px" y="0px"
	 width="74.333px" height="45.009px" viewBox="0 0 74.333 45.009" enable-background="new 0 0 74.333 45.009" xml:space="preserve">
<g>
	
		<line opacity="0.5" fill="none" stroke="#FFFFFF" stroke-width="2" stroke-linecap="round" stroke-miterlimit="10" x1="54.096" y1="1.347" x2="11.434" y2="44.009"/>
	<path opacity="0.5" fill="#FFFFFF" d="M51.035,0.873C49.248,0.308,47.348,0,45.374,0c-7.212,0-13.466,4.07-16.613,10.034
		c-2.119-2.228-5.104-3.625-8.422-3.625c-6.422,0-11.629,5.207-11.629,11.629c0,0.934,0.122,1.836,0.33,2.707
		C3.893,21.725,0,26.242,0,31.674c0,5.511,4.011,10.076,9.271,10.963L51.035,0.873z"/>
	<g opacity="0.5">
		<path fill="#FFFFFF" d="M36.458,28.933c-1.728,0-2.591,1.596-2.591,3.37c0,1.728,0.935,3.274,2.578,3.274
			c1.655,0,2.591-1.523,2.591-3.358C39.036,30.613,38.196,28.933,36.458,28.933z"/>
		<path fill="#FFFFFF" d="M63.122,31.117c-1.067,0-1.535,0.983-1.619,1.715h3.082C64.597,32.16,64.309,31.117,63.122,31.117z"/>
		<path fill="#FFFFFF" d="M64.064,20.585c0.057-0.594,0.091-1.195,0.091-1.805c0-6.51-3.314-12.243-8.346-15.612L16.173,42.805
			h47.028c6.147,0,11.132-4.984,11.132-11.131C74.333,25.817,69.807,21.027,64.064,20.585z M36.386,36.429
			c-2.135,0-3.634-1.655-3.634-4.102c0-2.566,1.595-4.246,3.754-4.246c2.206,0,3.634,1.691,3.634,4.09
			C40.14,34.955,38.448,36.429,36.386,36.429z M49.679,36.297h-1.044v-7.676c-0.191-0.096-0.455-0.156-0.875-0.156
			c-1.092,0-1.464,0.804-1.464,1.739v0.288h1.367v0.804h-1.354v5.001h-1.056v-5.001h-2.446v5.001h-1.044v-5.001h-0.815v-0.804h0.815
			v-0.144c0-0.756,0.168-1.5,0.672-1.991c0.372-0.36,0.911-0.576,1.571-0.576c0.384,0,0.779,0.132,0.959,0.216l-0.275,0.792
			c-0.216-0.108-0.468-0.18-0.72-0.18c-0.348,0-0.6,0.12-0.779,0.312c-0.288,0.312-0.384,0.804-0.384,1.331v0.24h2.446v-0.252
			c0-0.804,0.288-1.523,0.827-2.003c0.444-0.384,1.044-0.588,1.859-0.588c0.672,0,1.295,0.145,1.739,0.384V36.297z M52.49,36.297
			h-1.055v-5.805h1.055V36.297z M51.938,29.509c-0.371,0-0.636-0.288-0.636-0.647c0-0.372,0.276-0.66,0.66-0.66
			c0.396,0,0.647,0.288,0.647,0.66C52.622,29.221,52.358,29.509,51.938,29.509z M59.184,36.297h-1.055v-3.346
			c0-0.936-0.349-1.716-1.344-1.716c-0.695,0-1.235,0.492-1.415,1.08c-0.048,0.132-0.072,0.312-0.072,0.491v3.49h-1.055v-4.233
			c0-0.6-0.013-1.092-0.049-1.571h0.936l0.061,0.959h0.023c0.288-0.552,0.96-1.091,1.919-1.091c0.804,0,2.051,0.479,2.051,2.471
			V36.297z M65.568,33.586H61.49c0.024,1.428,0.936,2.016,1.991,2.016c0.756,0,1.211-0.132,1.607-0.3l0.18,0.755
			c-0.372,0.168-1.008,0.36-1.931,0.36c-1.787,0-2.854-1.176-2.854-2.927s1.031-3.13,2.723-3.13c1.895,0,2.398,1.667,2.398,2.734
			C65.604,33.311,65.58,33.479,65.568,33.586z"/>
	</g>
</g>
<g>
</g>
<g>
</g>
<g>
</g>
<g>
</g>
<g>
</g>
<g>
</g>
</svg>
