<?xml version="1.0" encoding="iso-8859-1"?>
<!-- Generator: Adobe Illustrator 16.0.0, SVG Export Plug-In . SVG Version: 6.00 Build 0)  -->
<!DOCTYPE svg PUBLIC "-//W3C//DTD SVG 1.1//EN" "http://www.w3.org/Graphics/SVG/1.1/DTD/svg11.dtd">
<svg version="1.1" id="Layer_1" xmlns="http://www.w3.org/2000/svg" xmlns:xlink="http://www.w3.org/1999/xlink" x="0px" y="0px"
	 width="67.58px" height="67.581px" viewBox="0 0 67.58 67.581" enable-background="new 0 0 67.58 67.581" xml:space="preserve">
<circle opacity="0.5" fill="none" stroke="#FFFFFF" stroke-miterlimit="10" cx="33.79" cy="33.791" r="33.29"/>
<path opacity="0.5" fill="#FFFFFF" d="M44.793,23.085l-6.682,7.552c1.094,0.885,2.123,1.848,3.07,2.884l9.422-5.897
	C48.857,25.896,46.906,24.371,44.793,23.085z"/>
<path opacity="0.5" fill="#FFFFFF" d="M57.248,37.189l-11.33,3.402c0.998,2.128,1.742,4.397,2.184,6.774h11.791
	C59.578,43.767,58.662,40.343,57.248,37.189z"/>
<path opacity="0.5" fill="#FFFFFF" d="M52.156,29.271l-9.525,5.961c0.826,1.06,1.574,2.184,2.246,3.357l11.375-3.415
	C55.111,33.048,53.732,31.07,52.156,29.271z"/>
<path opacity="0.5" fill="#FFFFFF" d="M28.562,39.565L40.111,3.912L22.689,37.106c-2.459,0.216-4.72,1.75-5.739,4.186
	c-1.463,3.496,0.184,7.516,3.68,8.979c3.496,1.463,7.516-0.185,8.979-3.681C30.629,44.154,30.135,41.468,28.562,39.565z"/>
<path opacity="0.5" fill="#FFFFFF" d="M27.235,25.217l3.482-6.635c-0.774-0.057-1.553-0.095-2.342-0.095
	c-9.42,0-17.875,4.122-23.671,10.656c4.486-3.014,9.886-4.774,15.697-4.774C22.76,24.369,25.046,24.671,27.235,25.217z"/>
<path opacity="0.5" fill="#FFFFFF" d="M36.611,19.585l-2.677,8.265c0.821,0.452,1.626,0.928,2.396,1.456l6.488-7.333
	C40.86,20.965,38.779,20.169,36.611,19.585z"/>
<g>
</g>
<g>
</g>
<g>
</g>
<g>
</g>
<g>
</g>
<g>
</g>
</svg>
