<?xml version="1.0" encoding="iso-8859-1"?>
<!-- Generator: Adobe Illustrator 16.0.0, SVG Export Plug-In . SVG Version: 6.00 Build 0)  -->
<!DOCTYPE svg PUBLIC "-//W3C//DTD SVG 1.1//EN" "http://www.w3.org/Graphics/SVG/1.1/DTD/svg11.dtd">
<svg version="1.1" id="Layer_1" xmlns="http://www.w3.org/2000/svg" xmlns:xlink="http://www.w3.org/1999/xlink" x="0px" y="0px"
	 width="40.661px" height="72.427px" viewBox="0 0 40.661 72.427" enable-background="new 0 0 40.661 72.427" xml:space="preserve">
<path opacity="0.5" fill="#FFFFFF" d="M33.661,0H7C3.134,0,0,3.134,0,7v58.427c0,3.866,3.134,7,7,7h26.661c3.867,0,7-3.134,7-7V7
	C40.661,3.134,37.528,0,33.661,0z M16.518,5.64h7.624c0.23,0,0.417,0.187,0.417,0.417c0,0.229-0.187,0.416-0.417,0.416h-7.624
	c-0.23,0-0.417-0.187-0.417-0.416C16.102,5.827,16.288,5.64,16.518,5.64z M12.397,4.787c0.702,0,1.271,0.568,1.271,1.271
	c0,0.701-0.569,1.271-1.271,1.271s-1.271-0.569-1.271-1.271C11.127,5.355,11.696,4.787,12.397,4.787z M20.331,70.055
	c-2.386,0-4.32-1.934-4.32-4.319s1.934-4.32,4.32-4.32c2.385,0,4.319,1.935,4.319,4.32S22.715,70.055,20.331,70.055z M38.768,58.356
	c0,0.553-0.447,1-1,1H2.893c-0.552,0-1-0.447-1-1v-48c0-0.552,0.448-1,1-1h34.875c0.553,0,1,0.448,1,1V58.356z"/>
<path opacity="0.8" fill="#FFFFFF" d="M37.68,42.958c-1.02,0-1.843,0.659-1.843,1.474v5.154l-0.554-0.098v-6.934
	c0-0.939-0.823-1.703-1.841-1.703c-1.017,0-1.843,0.764-1.843,1.703v6.286l-0.458-0.081h-0.276v-9.145
	c0-0.951-0.868-1.723-1.935-1.723c-1.068,0-1.935,0.771-1.935,1.723v9.145h-0.645V35.13c0-1.169-0.948-2.118-2.118-2.118
	s-2.118,0.948-2.118,2.118v14.09v3.135l-2.323-5.837c-0.545-1.371-2.099-2.039-3.469-1.494c-1.371,0.545-2.04,2.098-1.495,3.469
	L18.8,59.811l4.789,8.656l0.645,3.96h11.971l3.316-14.366v-1.474v-6.354v-5.801C39.521,43.618,38.697,42.958,37.68,42.958z"/>
<g>
</g>
<g>
</g>
<g>
</g>
<g>
</g>
<g>
</g>
<g>
</g>
</svg>
